<?xml version="1.0" encoding="UTF-8" standalone="no"?><!DOCTYPE svg PUBLIC "-//W3C//DTD SVG 1.1//EN" "http://www.w3.org/Graphics/SVG/1.1/DTD/svg11.dtd"><svg width="100%" height="100%" viewBox="0 0 3292 717" version="1.1" xmlns="http://www.w3.org/2000/svg" xmlns:xlink="http://www.w3.org/1999/xlink" xml:space="preserve" xmlns:serif="http://www.serif.com/" style="fill-rule:evenodd;clip-rule:evenodd;stroke-linejoin:round;stroke-miterlimit:2;"><g id="TRIGO-NUEVO" serif:id="TRIGO NUEVO"><g id="O"><path d="M2705.48,223.63c-49.893,-0 -90.386,33.861 -90.386,75.679l-0,118.049c-0,41.837 40.475,75.698 90.386,75.698l340.19,0c49.952,0 90.427,-33.9 90.427,-75.698l0,-118.089c0,-41.798 -40.475,-75.679 -90.389,-75.679l-340.228,0.04Zm340.21,-102.392c117.437,-0 212.642,79.706 212.642,178.031l0,118.089c0,98.344 -95.227,178.051 -212.662,178.051l-340.19,-0c-117.497,-0 -212.7,-79.687 -212.7,-178.051l0.039,-118.049c0,-98.345 95.225,-178.032 212.661,-178.052l340.21,0l-0,-0.019Z" style="fill:#65d9e5;fill-rule:nonzero;"/></g><g id="G"><path d="M2421.19,306.338c5.37,-0 10.108,3.948 10.108,8.43l0,85.492l-0.021,17.078c-0,98.345 -95.204,178.051 -212.741,178.051l-340.169,0c-117.435,0.04 -212.7,-79.686 -212.641,-178.011l0,-118.089c0,-98.325 95.206,-178.031 212.702,-178.031l340.169,-0.02c108.157,-0 197.457,67.584 210.942,155.049c0.812,5.272 -3.67,9.537 -9.951,9.537l-103.91,-0c-3.554,-0 -8.806,-3.377 -9.775,-6.239c-10.305,-32.282 -45.491,-55.994 -87.289,-55.994l-340.168,-0c-49.951,-0 -90.408,33.88 -90.408,75.678l0,118.049c0,41.818 40.457,75.699 90.37,75.699l340.169,-0c49.992,-0 90.445,-33.901 90.445,-75.699l0,-8.647l-260.579,-0c-33.782,-0 -61.127,-22.923 -61.127,-51.177c-0,-28.253 27.424,-51.156 61.127,-51.176l372.747,-0l-0,0.02Z" style="fill:#65d9e5;fill-rule:nonzero;"/></g><g id="I"><path d="M1465.76,129.688c-0,-4.482 4.719,-8.45 10.109,-8.45l102.096,-0c5.37,-0 10.089,3.948 10.089,8.45l-0.059,414.525c-0,28.253 -27.326,51.178 -61.108,51.178c-33.742,0.037 -61.127,-22.905 -61.127,-51.178l-0,-414.525Z" style="fill:#000837;fill-rule:nonzero;"/></g><g id="R"><path d="M962.918,121.278l19.626,-0l355.806,-0.02c2.27,-0 4.561,0.118 6.812,0.336l44.621,-0c5.311,-0 10.05,3.929 10.05,8.41l-0,85.433c-0,4.501 -4.739,8.43 -10.109,8.43l-427.122,0.04c-14.729,-0 -27.957,5.331 -37.098,13.84c-7.799,7.325 -12.498,17.039 -12.498,27.642l-0,312.88c-0,4.465 -4.719,8.433 -10.09,8.433l-102.076,0c-5.37,0 -10.109,-3.968 -10.109,-8.433l0,-37.551c-0.197,-1.796 -0.335,-3.632 -0.335,-5.469l-0,-269.564c-0,-36.961 16.604,-70.604 43.89,-96.114c31.551,-29.635 77.456,-48.293 128.632,-48.293" style="fill:#000837;fill-rule:nonzero;"/></g><g id="T"><path d="M332.158,223.65l-288.775,0c-5.37,0 -10.05,-3.929 -10.05,-8.43l0,-85.472c0,-4.482 4.68,-8.431 10.05,-8.431l701.918,0.04c5.39,-0 10.109,3.968 10.109,8.45l-0,42.667c-0,28.273 -27.385,51.176 -61.167,51.176l-235.092,0l-2.369,363.348c0,4.522 -4.699,8.431 -10.069,8.431l-102.096,0c-5.371,0 -10.109,-3.909 -10.109,-8.431l-0,-361.373l-2.35,-1.975Z" style="fill:#000837;fill-rule:nonzero;"/></g></g></svg>